<?xml version="1.0" encoding="UTF-8"?>
<!DOCTYPE svg PUBLIC "-//W3C//DTD SVG 1.1//EN" "http://www.w3.org/Graphics/SVG/1.1/DTD/svg11.dtd">
<!-- Creator: CorelDRAW 2018 (64 Bit) -->
<svg xmlns="http://www.w3.org/2000/svg" xml:space="preserve" width="39.739mm" height="9.134mm" version="1.1" style="shape-rendering:geometricPrecision; text-rendering:geometricPrecision; image-rendering:optimizeQuality; fill-rule:evenodd; clip-rule:evenodd"
viewBox="0 0 391.28 89.94"
 xmlns:xlink="http://www.w3.org/1999/xlink">
 <defs>
  <style type="text/css">
   <![CDATA[
    .fil4 {fill:#FEFEFE}
    .fil0 {fill:#008CCC;fill-rule:nonzero}
    .fil2 {fill:#00599C;fill-rule:nonzero}
    .fil3 {fill:#00C4B5;fill-rule:nonzero}
    .fil1 {fill:#008CCC;fill-rule:nonzero}
   ]]>
  </style>
 </defs>
 <g id="Capa_x0020_1">
  <metadata id="CorelCorpID_0Corel-Layer"/>
  <g id="_1757170835840">
   <path class="fil0" d="M-0 31.44c0,22.27 12.49,31.44 34.32,31.44l32.74 0c2.27,0 4.02,-1.75 4.02,-4.02l0 -3.49c0,-2.27 -1.75,-4.02 -4.02,-4.02l-6.81 0c2.62,-2.88 8.38,-8.99 8.38,-20.78 0,-22.27 -12.49,-30.56 -34.32,-30.56 -21.83,0 -34.32,9.17 -34.32,31.44zm34.32 -19.91c13.1,0 18.25,6.37 18.25,19.04 0,12.66 -5.15,20.78 -18.25,20.78 -13.1,0 -18.25,-7.25 -18.25,-19.91 0,-12.66 5.15,-19.91 18.25,-19.91z"/>
   <path class="fil0" d="M99.66 50.73c-7.77,0 -11.26,-4.02 -11.26,-12.41l0 -33.06c0,-2.27 -1.83,-4.03 -4.02,-4.03l-7.95 0c-2.27,0 -4.1,1.76 -4.1,4.03l0 32.98c0,15.47 9.08,24.55 26.9,24.55l7.68 0c17.81,0 26.89,-9.08 26.89,-24.55l0 -32.98c0,-2.27 -1.83,-4.03 -4.1,-4.03l-7.95 0c-2.18,0 -4.02,1.76 -4.02,4.03l0 33.06c0,8.4 -3.49,12.41 -11.26,12.41l-6.81 0z"/>
   <path class="fil0" d="M189.97 58.49c0,2.18 1.83,3.94 4.02,3.94l7.95 0c2.27,0 4.1,-1.85 4.1,-4.03l0 -53.15c0,-2.27 -1.83,-4.03 -4.1,-4.03l-7.95 0c-2.18,0 -4.02,1.76 -4.02,4.03l0 1.19c3.23,2.77 5.31,6.75 5.31,12.2 0,4.23 -1.38,7.56 -5.31,10.92l0 0.64c5.44,3.09 7.75,8.29 7.75,13.89 0,6.51 -3.07,11.31 -7.75,14.36l0 0.03z"/>
   <path class="fil1" d="M231.85 16.49l0 42c0,2.18 1.83,3.94 4.02,3.94l8.03 0c2.18,0 4.02,-1.76 4.02,-3.94l0 -42 -16.07 0z"/>
   <path class="fil2" d="M212.82 1.22c-2.27,0 -4.02,1.75 -4.02,4.02l0 4.02c0,2.27 1.75,4.02 4.02,4.02l4.98 0 6.86 0 7.2 0 16.07 0 19.04 0 4.02 0 0 -4.02 0 -4.02 0 -0.09c0,-0.63 -0.15,-1.22 -0.42,-1.74 -0.62,-1.26 -1.88,-2.11 -3.39,-2.18l-0.1 -0 -0 0 -0.1 -0 0 0 -49.16 0 -4.98 0z"/>
   <path class="fil0" d="M273.5 16.49l0 41.84c0,2.27 1.75,4.1 4.02,4.1l48.99 0c2.27,0 4.02,-1.83 4.02,-4.02l0 -4.1c0,-2.18 -1.75,-3.93 -3.93,-3.93l-37.02 0 0 -12.57 31.96 0c2.18,0 4.02,-1.83 4.02,-4.02l0 -4.02c0,-2.18 -1.83,-4.02 -4.02,-4.02l-31.96 0 0 -9.27 -16.07 0z"/>
   <path class="fil2" d="M326.67 1.22l-49.16 0c-2.18,0 -4.02,1.75 -4.02,3.93l0 8.12 16.07 0 2.09 0 35.03 0c2.18,0 4.02,-1.75 4.02,-4.02l0 -4.02c0,-2.27 -1.83,-4.02 -4.02,-4.02z"/>
   <path class="fil0" d="M338.1 1.22c-2.27,0 -4.02,1.85 -4.02,4.12l0 53.16c0,2.18 1.83,3.93 4.02,3.93l49.16 0c2.18,0 4.02,-1.75 4.02,-4.02l0 -4.02c0,-2.27 -1.83,-4.02 -4.02,-4.02l-37.11 0 0 -45.04c0,-2.27 -1.75,-4.12 -4.02,-4.12l-8.03 0z"/>
   <path class="fil3" d="M174.85 36.24c4.54,0 6.81,2.97 6.81,7.33 0,4.37 -2.27,7.34 -6.81,7.34l-24.36 0 0 -3.06 9.05 0c0.12,0.53 0.59,0.92 1.15,0.92 0.65,0 1.18,-0.53 1.18,-1.18 0,-0.65 -0.53,-1.18 -1.18,-1.18 -0.56,0 -1.03,0.39 -1.15,0.92l-9.05 0 0 -1.78 6.37 0c0.12,0.53 0.59,0.92 1.15,0.92 0.65,0 1.18,-0.53 1.18,-1.18 0,-0.65 -0.53,-1.18 -1.18,-1.18 -0.56,0 -1.04,0.39 -1.15,0.92l-6.37 0 0 -2.43 10.63 0c0.12,0.53 0.59,0.92 1.15,0.92 0.65,0 1.18,-0.53 1.18,-1.18 0,-0.65 -0.53,-1.18 -1.18,-1.18 -0.56,0 -1.04,0.39 -1.15,0.92l-10.63 0 0 -2.26 8.24 0c0.12,0.53 0.59,0.92 1.15,0.92 0.65,0 1.18,-0.53 1.18,-1.18 0,-0.65 -0.53,-1.18 -1.18,-1.18 -0.56,0 -1.03,0.39 -1.15,0.92l-8.24 0 0 -3.06 24.36 0zm-14.96 2.65c0.37,0 0.66,0.3 0.66,0.66 0,0.37 -0.3,0.66 -0.66,0.66 -0.37,0 -0.66,-0.3 -0.66,-0.66 0,-0.37 0.3,-0.66 0.66,-0.66zm2.39 2.78c0.37,0 0.66,0.3 0.66,0.66 0,0.37 -0.3,0.66 -0.66,0.66 -0.37,0 -0.66,-0.3 -0.66,-0.66 0,-0.37 0.3,-0.66 0.66,-0.66zm-4.27 2.95c0.37,0 0.66,0.3 0.66,0.66 0,0.37 -0.3,0.66 -0.66,0.66 -0.37,0 -0.66,-0.3 -0.66,-0.66 0,-0.37 0.3,-0.66 0.66,-0.66zm2.68 2.3c0.37,0 0.66,0.3 0.66,0.66 0,0.37 -0.3,0.66 -0.66,0.66 -0.37,0 -0.66,-0.3 -0.66,-0.66 0,-0.37 0.3,-0.66 0.66,-0.66z"/>
   <path class="fil3" d="M173.28 12.75c3.58,0 5.94,2.2 5.94,6.16 0,3.96 -2.36,6.16 -5.94,6.16l-22.79 0 0 -1.88 9.05 0c0.12,0.53 0.59,0.92 1.15,0.92 0.65,0 1.18,-0.53 1.18,-1.18 0,-0.65 -0.53,-1.18 -1.18,-1.18 -0.56,0 -1.03,0.39 -1.15,0.92l-9.05 0 0 -1.78 6.37 0c0.12,0.53 0.59,0.92 1.15,0.92 0.65,0 1.18,-0.53 1.18,-1.18 0,-0.65 -0.53,-1.18 -1.18,-1.18 -0.56,0 -1.04,0.39 -1.15,0.92l-6.37 0 0 -2.43 10.63 0c0.12,0.53 0.59,0.92 1.15,0.92 0.65,0 1.18,-0.53 1.18,-1.18 0,-0.65 -0.53,-1.18 -1.18,-1.18 -0.56,0 -1.04,0.39 -1.15,0.92l-10.63 0 0 -2.26 8.24 0c0.12,0.53 0.59,0.92 1.15,0.92 0.65,0 1.18,-0.53 1.18,-1.18 0,-0.65 -0.53,-1.18 -1.18,-1.18 -0.56,0 -1.03,0.39 -1.15,0.92l-8.24 0 0 -1.88 22.79 0zm-13.39 1.47c0.37,0 0.66,0.3 0.66,0.66 0,0.37 -0.3,0.66 -0.66,0.66 -0.37,0 -0.66,-0.3 -0.66,-0.66 0,-0.37 0.3,-0.66 0.66,-0.66zm2.39 2.78c0.37,0 0.66,0.3 0.66,0.66 0,0.37 -0.3,0.66 -0.66,0.66 -0.37,0 -0.66,-0.3 -0.66,-0.66 0,-0.37 0.3,-0.66 0.66,-0.66zm-4.27 2.95c0.37,0 0.66,0.3 0.66,0.66 0,0.37 -0.3,0.66 -0.66,0.66 -0.37,0 -0.66,-0.3 -0.66,-0.66 0,-0.37 0.3,-0.66 0.66,-0.66zm2.68 2.3c0.37,0 0.66,0.3 0.66,0.66 0,0.37 -0.3,0.66 -0.66,0.66 -0.37,0 -0.66,-0.3 -0.66,-0.66 0,-0.37 0.3,-0.66 0.66,-0.66z"/>
   <g>
    <g>
     <path class="fil4" d="M159.88 13.7c0.65,0 1.18,0.53 1.18,1.18 0,0.65 -0.53,1.18 -1.18,1.18 -0.65,0 -1.18,-0.53 -1.18,-1.18 0,-0.65 0.53,-1.18 1.18,-1.18zm0 0.52c0.37,0 0.66,0.3 0.66,0.66 0,0.37 -0.3,0.66 -0.66,0.66 -0.37,0 -0.66,-0.3 -0.66,-0.66 0,-0.37 0.3,-0.66 0.66,-0.66z"/>
     <polygon class="fil4" points="158.98,15.15 150.48,15.15 150.48,14.63 158.98,14.63 "/>
    </g>
    <g>
     <path class="fil4" d="M162.27 16.49c0.65,0 1.18,0.53 1.18,1.18 0,0.65 -0.53,1.18 -1.18,1.18 -0.65,0 -1.18,-0.53 -1.18,-1.18 0,-0.65 0.53,-1.18 1.18,-1.18zm0 0.52c0.37,0 0.66,0.3 0.66,0.66 0,0.37 -0.3,0.66 -0.66,0.66 -0.37,0 -0.66,-0.3 -0.66,-0.66 0,-0.37 0.3,-0.66 0.66,-0.66z"/>
     <polygon class="fil4" points="161.37,17.93 150.48,17.93 150.48,17.41 161.37,17.41 "/>
    </g>
    <g>
     <path class="fil4" d="M158 19.44c0.65,0 1.18,0.53 1.18,1.18 0,0.65 -0.53,1.18 -1.18,1.18 -0.65,0 -1.18,-0.53 -1.18,-1.18 0,-0.65 0.53,-1.18 1.18,-1.18zm0 0.52c0.37,0 0.66,0.3 0.66,0.66 0,0.37 -0.3,0.66 -0.66,0.66 -0.37,0 -0.66,-0.3 -0.66,-0.66 0,-0.37 0.3,-0.66 0.66,-0.66z"/>
     <polygon class="fil4" points="157.1,20.88 150.48,20.88 150.48,20.36 157.1,20.36 "/>
    </g>
    <g>
     <path class="fil4" d="M160.68 21.74c0.65,0 1.18,0.53 1.18,1.18 0,0.65 -0.53,1.18 -1.18,1.18 -0.65,0 -1.18,-0.53 -1.18,-1.18 0,-0.65 0.53,-1.18 1.18,-1.18zm0 0.52c0.37,0 0.66,0.3 0.66,0.66 0,0.37 -0.3,0.66 -0.66,0.66 -0.37,0 -0.66,-0.3 -0.66,-0.66 0,-0.37 0.3,-0.66 0.66,-0.66z"/>
     <polygon class="fil4" points="159.78,23.19 150.48,23.19 150.48,22.67 159.78,22.67 "/>
    </g>
   </g>
   <g>
    <g>
     <path class="fil4" d="M159.88 38.37c0.65,0 1.18,0.53 1.18,1.18 0,0.65 -0.53,1.18 -1.18,1.18 -0.65,0 -1.18,-0.53 -1.18,-1.18 0,-0.65 0.53,-1.18 1.18,-1.18zm0 0.52c0.37,0 0.66,0.3 0.66,0.66 0,0.37 -0.3,0.66 -0.66,0.66 -0.37,0 -0.66,-0.3 -0.66,-0.66 0,-0.37 0.3,-0.66 0.66,-0.66z"/>
     <polygon class="fil4" points="158.98,39.81 150.48,39.81 150.48,39.29 158.98,39.29 "/>
    </g>
    <g>
     <path class="fil4" d="M162.27 41.15c0.65,0 1.18,0.53 1.18,1.18 0,0.65 -0.53,1.18 -1.18,1.18 -0.65,0 -1.18,-0.53 -1.18,-1.18 0,-0.65 0.53,-1.18 1.18,-1.18zm0 0.52c0.37,0 0.66,0.3 0.66,0.66 0,0.37 -0.3,0.66 -0.66,0.66 -0.37,0 -0.66,-0.3 -0.66,-0.66 0,-0.37 0.3,-0.66 0.66,-0.66z"/>
     <polygon class="fil4" points="161.37,42.6 150.48,42.6 150.48,42.08 161.37,42.08 "/>
    </g>
    <g>
     <path class="fil4" d="M158 44.11c0.65,0 1.18,0.53 1.18,1.18 0,0.65 -0.53,1.18 -1.18,1.18 -0.65,0 -1.18,-0.53 -1.18,-1.18 0,-0.65 0.53,-1.18 1.18,-1.18zm0 0.52c0.37,0 0.66,0.3 0.66,0.66 0,0.37 -0.3,0.66 -0.66,0.66 -0.37,0 -0.66,-0.3 -0.66,-0.66 0,-0.37 0.3,-0.66 0.66,-0.66z"/>
     <polygon class="fil4" points="157.1,45.55 150.48,45.55 150.48,45.03 157.1,45.03 "/>
    </g>
    <g>
     <path class="fil4" d="M160.68 46.41c0.65,0 1.18,0.53 1.18,1.18 0,0.65 -0.53,1.18 -1.18,1.18 -0.65,0 -1.18,-0.53 -1.18,-1.18 0,-0.65 0.53,-1.18 1.18,-1.18zm0 0.52c0.37,0 0.66,0.3 0.66,0.66 0,0.37 -0.3,0.66 -0.66,0.66 -0.37,0 -0.66,-0.3 -0.66,-0.66 0,-0.37 0.3,-0.66 0.66,-0.66z"/>
     <polygon class="fil4" points="159.78,47.85 150.48,47.85 150.48,47.33 159.78,47.33 "/>
    </g>
   </g>
   <path class="fil2" d="M279.7 86.38c0.59,0 1.07,-0.05 1.46,-0.15 0.38,-0.1 0.69,-0.23 0.92,-0.4 0.23,-0.17 0.39,-0.37 0.48,-0.6 0.09,-0.23 0.13,-0.49 0.13,-0.78 0,-0.61 -0.28,-1.11 -0.85,-1.51 -0.57,-0.4 -1.55,-0.83 -2.94,-1.3 -0.61,-0.21 -1.21,-0.46 -1.82,-0.73 -0.61,-0.28 -1.15,-0.62 -1.63,-1.04 -0.48,-0.42 -0.87,-0.93 -1.18,-1.52 -0.3,-0.6 -0.45,-1.32 -0.45,-2.18 0,-0.86 0.16,-1.63 0.48,-2.31 0.32,-0.69 0.77,-1.27 1.36,-1.75 0.59,-0.48 1.3,-0.85 2.14,-1.11 0.84,-0.26 1.78,-0.39 2.83,-0.39 1.25,0 2.33,0.13 3.23,0.4 0.91,0.27 1.66,0.56 2.25,0.88l-1.2 3.29c-0.52,-0.27 -1.09,-0.5 -1.72,-0.71 -0.63,-0.2 -1.39,-0.31 -2.28,-0.31 -1,0 -1.72,0.14 -2.15,0.41 -0.44,0.28 -0.65,0.7 -0.65,1.27 0,0.34 0.08,0.62 0.24,0.86 0.16,0.23 0.39,0.44 0.68,0.63 0.29,0.19 0.63,0.36 1.02,0.51 0.38,0.15 0.81,0.31 1.27,0.47 0.96,0.36 1.8,0.71 2.51,1.06 0.71,0.35 1.31,0.75 1.78,1.22 0.47,0.46 0.82,1.01 1.06,1.63 0.23,0.62 0.35,1.38 0.35,2.27 0,1.73 -0.61,3.07 -1.82,4.02 -1.21,0.95 -3.04,1.43 -5.48,1.43 -0.82,0 -1.56,-0.05 -2.22,-0.15 -0.66,-0.1 -1.24,-0.22 -1.75,-0.36 -0.51,-0.14 -0.94,-0.29 -1.31,-0.45 -0.37,-0.16 -0.67,-0.31 -0.92,-0.45l1.18 -3.31c0.55,0.3 1.23,0.58 2.04,0.82 0.81,0.24 1.8,0.36 2.98,0.36zm17.02 -7.75c0.75,-1.26 1.46,-2.52 2.14,-3.78 0.68,-1.27 1.3,-2.54 1.88,-3.81l4.6 0c-1.02,2 -2.07,3.93 -3.15,5.8 -1.09,1.87 -2.24,3.75 -3.45,5.64l0 7.08 -4.17 0 0 -7.03c-1.21,-1.89 -2.37,-3.78 -3.46,-5.67 -1.1,-1.89 -2.15,-3.83 -3.17,-5.83l4.84 0c0.57,1.28 1.18,2.55 1.84,3.81 0.66,1.26 1.36,2.52 2.11,3.78zm15.67 7.75c0.59,0 1.07,-0.05 1.46,-0.15 0.38,-0.1 0.69,-0.23 0.92,-0.4 0.23,-0.17 0.39,-0.37 0.48,-0.6 0.09,-0.23 0.13,-0.49 0.13,-0.78 0,-0.61 -0.28,-1.11 -0.85,-1.51 -0.57,-0.4 -1.55,-0.83 -2.94,-1.3 -0.61,-0.21 -1.21,-0.46 -1.82,-0.73 -0.61,-0.28 -1.15,-0.62 -1.63,-1.04 -0.48,-0.42 -0.87,-0.93 -1.18,-1.52 -0.3,-0.6 -0.45,-1.32 -0.45,-2.18 0,-0.86 0.16,-1.63 0.48,-2.31 0.32,-0.69 0.77,-1.27 1.36,-1.75 0.59,-0.48 1.3,-0.85 2.14,-1.11 0.84,-0.26 1.78,-0.39 2.83,-0.39 1.25,0 2.33,0.13 3.23,0.4 0.91,0.27 1.66,0.56 2.24,0.88l-1.2 3.29c-0.52,-0.27 -1.09,-0.5 -1.72,-0.71 -0.63,-0.2 -1.39,-0.31 -2.28,-0.31 -1,0 -1.72,0.14 -2.15,0.41 -0.44,0.28 -0.65,0.7 -0.65,1.27 0,0.34 0.08,0.62 0.24,0.86 0.16,0.23 0.39,0.44 0.68,0.63 0.29,0.19 0.63,0.36 1.02,0.51 0.38,0.15 0.81,0.31 1.27,0.47 0.96,0.36 1.8,0.71 2.51,1.06 0.71,0.35 1.31,0.75 1.78,1.22 0.47,0.46 0.82,1.01 1.06,1.63 0.23,0.62 0.35,1.38 0.35,2.27 0,1.73 -0.61,3.07 -1.82,4.02 -1.21,0.95 -3.04,1.43 -5.48,1.43 -0.82,0 -1.56,-0.05 -2.22,-0.15 -0.66,-0.1 -1.24,-0.22 -1.75,-0.36 -0.51,-0.14 -0.95,-0.29 -1.31,-0.45 -0.37,-0.16 -0.67,-0.31 -0.92,-0.45l1.18 -3.31c0.55,0.3 1.23,0.58 2.05,0.82 0.81,0.24 1.8,0.36 2.98,0.36zm23.71 -15.34l0 3.55 -5.59 0 0 14.97 -4.17 0 0 -14.97 -5.58 0 0 -3.55 15.34 0zm2.67 18.52l0 -18.52 12.51 0 0 3.5 -8.34 0 0 3.63 7.4 0 0 3.42 -7.4 0 0 4.46 8.95 0 0 3.5 -13.12 0zm21.11 -18.52c0.32,0.59 0.69,1.31 1.11,2.18 0.42,0.86 0.85,1.8 1.31,2.81 0.46,1.01 0.91,2.04 1.35,3.09 0.45,1.05 0.87,2.04 1.26,2.97 0.39,-0.93 0.82,-1.92 1.26,-2.97 0.45,-1.05 0.9,-2.08 1.35,-3.09 0.45,-1.01 0.89,-1.94 1.31,-2.81 0.42,-0.86 0.79,-1.59 1.11,-2.18l3.79 0c0.18,1.23 0.34,2.61 0.5,4.13 0.15,1.52 0.28,3.11 0.4,4.76 0.12,1.65 0.22,3.3 0.32,4.96 0.1,1.66 0.18,3.22 0.25,4.68l-4.06 0c-0.05,-1.8 -0.13,-3.76 -0.21,-5.88 -0.09,-2.12 -0.22,-4.26 -0.4,-6.41 -0.32,0.75 -0.68,1.58 -1.07,2.49 -0.39,0.91 -0.78,1.82 -1.17,2.73 -0.38,0.91 -0.75,1.78 -1.11,2.61 -0.36,0.83 -0.66,1.54 -0.91,2.12l-2.91 0c-0.25,-0.59 -0.55,-1.3 -0.91,-2.12 -0.36,-0.83 -0.73,-1.7 -1.11,-2.61 -0.39,-0.91 -0.77,-1.82 -1.17,-2.73 -0.39,-0.91 -0.75,-1.74 -1.07,-2.49 -0.18,2.16 -0.31,4.29 -0.4,6.41 -0.09,2.12 -0.16,4.08 -0.21,5.88l-4.06 0c0.07,-1.46 0.16,-3.02 0.25,-4.68 0.1,-1.66 0.21,-3.31 0.32,-4.96 0.12,-1.65 0.25,-3.23 0.4,-4.76 0.15,-1.52 0.32,-2.9 0.49,-4.13l3.98 0zm24.11 15.34c0.59,0 1.07,-0.05 1.46,-0.15 0.38,-0.1 0.69,-0.23 0.92,-0.4 0.23,-0.17 0.39,-0.37 0.48,-0.6 0.09,-0.23 0.13,-0.49 0.13,-0.78 0,-0.61 -0.29,-1.11 -0.86,-1.51 -0.57,-0.4 -1.55,-0.83 -2.94,-1.3 -0.61,-0.21 -1.21,-0.46 -1.82,-0.73 -0.61,-0.28 -1.15,-0.62 -1.63,-1.04 -0.48,-0.42 -0.87,-0.93 -1.18,-1.52 -0.3,-0.6 -0.45,-1.32 -0.45,-2.18 0,-0.86 0.16,-1.63 0.48,-2.31 0.32,-0.69 0.78,-1.27 1.36,-1.75 0.59,-0.48 1.3,-0.85 2.14,-1.11 0.84,-0.26 1.78,-0.39 2.83,-0.39 1.25,0 2.32,0.13 3.23,0.4 0.91,0.27 1.66,0.56 2.24,0.88l-1.2 3.29c-0.52,-0.27 -1.09,-0.5 -1.72,-0.71 -0.63,-0.2 -1.39,-0.31 -2.29,-0.31 -1,0 -1.72,0.14 -2.15,0.41 -0.44,0.28 -0.65,0.7 -0.65,1.27 0,0.34 0.08,0.62 0.24,0.86 0.16,0.23 0.39,0.44 0.68,0.63 0.29,0.19 0.63,0.36 1.02,0.51 0.38,0.15 0.81,0.31 1.27,0.47 0.96,0.36 1.8,0.71 2.51,1.06 0.71,0.35 1.3,0.75 1.78,1.22 0.47,0.46 0.82,1.01 1.06,1.63 0.23,0.62 0.35,1.38 0.35,2.27 0,1.73 -0.61,3.07 -1.82,4.02 -1.21,0.95 -3.04,1.43 -5.48,1.43 -0.82,0 -1.56,-0.05 -2.22,-0.15 -0.66,-0.1 -1.24,-0.22 -1.75,-0.36 -0.51,-0.14 -0.94,-0.29 -1.31,-0.45 -0.36,-0.16 -0.67,-0.31 -0.92,-0.45l1.18 -3.31c0.55,0.3 1.23,0.58 2.04,0.82 0.81,0.24 1.8,0.36 2.98,0.36z"/>
  </g>
 </g>
</svg>
